<?xml version="1.0" encoding="utf-8"?>
<!-- Generator: Adobe Illustrator 21.1.0, SVG Export Plug-In . SVG Version: 6.00 Build 0)  -->
<svg version="1.1" id="Layer_1" xmlns:inkscape="http://www.inkscape.org/namespaces/inkscape"
	 xmlns="http://www.w3.org/2000/svg" xmlns:xlink="http://www.w3.org/1999/xlink" x="0px" y="0px" viewBox="0 0 10 18.7"
	 style="enable-background:new 0 0 10 18.7;" xml:space="preserve">
<path d="M9.6,13.4c0,0-0.1,0-0.1,0l-3.2-1.1C6.1,12.2,6,12,6.1,11.8c0.1-0.2,0.3-0.3,0.5-0.2l3.2,1.2C10,12.8,10,13,10,13.2
	C9.9,13.4,9.8,13.4,9.6,13.4z M9.6,18.7c-0.1,0-0.3-0.1-0.3-0.3L4.6,0.5c0-0.2,0.1-0.4,0.3-0.4C5,0,5.2,0.1,5.3,0.4L10,18.2
	c0,0.2-0.1,0.4-0.3,0.4C9.7,18.7,9.7,18.7,9.6,18.7z M3.1,13.6c-0.1,0-0.2,0-0.3-0.1l-2.6-2.3c-0.1-0.1-0.2-0.3,0-0.5
	c0.1-0.1,0.4-0.1,0.5,0l2.6,2.3c0.1,0.1,0.2,0.4,0,0.5C3.3,13.6,3.2,13.6,3.1,13.6z M0.4,18.7c0,0-0.1,0-0.1,0
	c-0.2,0-0.3-0.3-0.3-0.4L4.4,0.3c0-0.2,0.3-0.3,0.4-0.3c0.2,0,0.3,0.2,0.3,0.4L0.7,18.4C0.7,18.5,0.5,18.7,0.4,18.7z M8.2,0.7H1.4
	C1.2,0.7,1,0.6,1,0.4C1,0.2,1.2,0,1.4,0h6.9c0.2,0,0.4,0.2,0.4,0.4C8.6,0.6,8.4,0.7,8.2,0.7z"/>
</svg>
