<?xml version="1.0" encoding="utf-8"?>
<!-- Generator: Adobe Illustrator 21.1.0, SVG Export Plug-In . SVG Version: 6.00 Build 0)  -->
<svg version="1.1" id="Layer_1" xmlns:inkscape="http://www.inkscape.org/namespaces/inkscape"
	 xmlns="http://www.w3.org/2000/svg" xmlns:xlink="http://www.w3.org/1999/xlink" x="0px" y="0px" viewBox="0 0 15 12.9"
	 style="enable-background:new 0 0 15 12.9;" xml:space="preserve">
<path d="M9.1,10.4c0,0.9-0.8,1.7-1.7,1.7c-0.9,0-1.7-0.7-1.7-1.7c0-0.9,0.7-1.7,1.7-1.7C8.3,8.8,9.1,9.5,9.1,10.4z M7.4,1.2
	C4.6,1.2,3,1.9,3,2.2C3,2.6,4.6,3.3,7.4,3.3s4.4-0.8,4.4-1.1C11.8,1.9,10.2,1.2,7.4,1.2z M7.4,4.5c-2.7,0-5.6-0.7-5.6-2.2
	S4.7,0,7.4,0C10.1,0,13,0.7,13,2.2S10.1,4.5,7.4,4.5z M12.6,3.3c0,0-0.1,0-0.2,0.1c-0.5,0.5-0.9,1.9-0.9,4c0,2.8,0.9,4.3,1.2,4.3
	v0.6v-0.6c0.1,0,0.1-0.1,0.2-0.1c0.5-0.5,0.9-1.9,0.9-4C13.8,4.9,13,3.3,12.6,3.3z M12.7,12.9L12.7,12.9L12.7,12.9
	c-1.5-0.1-2.4-2.8-2.4-5.5c0-2.2,0.5-4,1.2-4.9c0.4-0.4,0.8-0.5,1-0.5C14.2,2.2,15,5,15,7.7c0,2.2-0.5,4-1.2,4.9
	C13.4,12.9,13,12.9,12.7,12.9z M2.2,3.3C1.9,3.3,1.1,4.9,1.1,7.7c0.1,2.7,0.9,4.1,1.3,4.1v0.6v-0.6c0.4-0.1,1.1-1.6,1.1-4.4
	C3.4,4.7,2.5,3.3,2.2,3.3z M2.5,12.9c-1.7,0-2.5-2.7-2.5-5.2c-0.1-2.7,0.6-5.4,2.1-5.6l0.1,0c1.5,0,2.3,2.7,2.4,5.2
	C4.7,10,4,12.8,2.5,12.9z"/>
</svg>
